<svg xmlns="http://www.w3.org/2000/svg" height="24" viewBox="0 96 960 960" width="24"><path d="M561.539 900.383v-61.999q86.538-27.538 139.422-100Q753.846 665.923 753.846 575q0-90.923-52.885-163.384-52.884-72.462-139.422-100v-61.999Q673.23 279.54 743.537 369.54q70.307 89.999 70.307 205.46 0 115.461-70.307 205.46-70.307 90-181.998 119.923ZM146.156 675.999V476.001h148.46l171.537-171.536v543.07L294.616 675.999h-148.46Zm415.383 46.154V427.847q40.461 22 62.537 61.961Q646.153 529.77 646.153 576q0 45.615-22.269 84.884t-62.345 61.269ZM406.154 450l-86 86h-114v80h114l86 86V450Zm-100 126Z"/></svg>